<?xml version="1.0" encoding="UTF-8" standalone="no"?>
<!DOCTYPE svg PUBLIC "-//W3C//DTD SVG 1.1//EN" "http://www.w3.org/Graphics/SVG/1.1/DTD/svg11.dtd">
<svg width="100%" height="100%" viewBox="0 0 280 100" version="1.1" xmlns="http://www.w3.org/2000/svg" xmlns:xlink="http://www.w3.org/1999/xlink" xml:space="preserve" xmlns:serif="http://www.serif.com/" style="fill-rule:evenodd;clip-rule:evenodd;stroke-linecap:round;stroke-linejoin:round;stroke-miterlimit:1.5;">
    <g id="Icon" transform="matrix(1,0,0,1,8.85926,5.25417)">
        <g id="Strap" transform="matrix(0.961903,-0.27339,0.27339,0.961903,-11.2264,15.4721)">
            <g transform="matrix(0.924108,0.209252,-0.220846,0.975309,17.431,-19.1596)">
                <rect x="0.668" y="52.337" width="96.828" height="12.02"/>
            </g>
            <g transform="matrix(0.924108,-0.209252,-0.220846,-0.975309,17.431,115.194)">
                <rect x="0.668" y="52.337" width="96.828" height="12.02"/>
            </g>
        </g>
        <g transform="matrix(0.976972,-0.213367,0.213367,0.976972,-9.52206,11.748)">
            <g id="Dong">
                <path d="M58.431,55.092C52.421,59.265 42.571,58.598 41.235,52.254C39.9,45.91 43.072,44.407 36.728,39.9C30.384,35.392 20.868,23.873 20.367,19.866C19.866,15.86 18.364,9.516 21.536,7.846C24.708,6.177 33.89,13.189 37.73,17.696C41.569,22.204 45.242,33.389 49.583,34.891C53.923,36.394 61.018,38.026 62.27,43.573C63.439,48.748 64.441,50.918 58.431,55.092Z" style="fill:rgb(151,18,47);stroke:black;stroke-width:1px;"/>
            </g>
        </g>
    </g>
    <g id="Textmark--Franklin-Gothic-Demi-" serif:id="Textmark (Franklin Gothic Demi)" transform="matrix(3.8436,0,0,3.8436,-329.785,-83.1648)">
        <path d="M122.067,29.804L120.364,29.911C120.341,28.932 119.959,28.442 119.219,28.442C118.37,28.442 117.946,29.196 117.946,30.704C117.946,31.574 118.061,32.165 118.292,32.475C118.523,32.785 118.845,32.94 119.259,32.94C119.931,32.94 120.342,32.502 120.491,31.628L122.067,31.725C121.965,32.555 121.656,33.186 121.139,33.618C120.623,34.05 119.99,34.266 119.241,34.266C118.323,34.266 117.577,33.949 117.003,33.316C116.429,32.682 116.142,31.806 116.142,30.688C116.142,29.642 116.419,28.785 116.975,28.117C117.531,27.45 118.289,27.116 119.251,27.116C120.918,27.116 121.857,28.012 122.067,29.804Z" style="fill:rgb(233,227,228);fill-rule:nonzero;"/>
        <path d="M125.818,27.223L127.99,34.159L126.243,34.159L125.816,32.731L123.573,32.731L123.139,34.159L121.714,34.159L123.937,27.223L125.818,27.223ZM123.963,31.451L125.433,31.451L124.704,29.017L123.963,31.451Z" style="fill:rgb(233,227,228);fill-rule:nonzero;"/>
        <path d="M129.853,31.41L129.853,34.159L128.216,34.159L128.216,27.223L131.265,27.223C131.828,27.223 132.279,27.288 132.619,27.418C132.96,27.549 133.242,27.788 133.465,28.137C133.689,28.486 133.801,28.873 133.801,29.3C133.801,30.133 133.399,30.73 132.597,31.092L133.877,34.159L132.082,34.159L131.016,31.41L129.853,31.41ZM129.853,28.458L129.853,30.226L130.848,30.226C131.174,30.226 131.41,30.203 131.557,30.157C131.705,30.112 131.836,30.01 131.951,29.852C132.066,29.695 132.124,29.515 132.124,29.311C132.124,29.118 132.066,28.945 131.951,28.793C131.836,28.641 131.711,28.547 131.575,28.511C131.44,28.475 131.186,28.458 130.813,28.458L129.853,28.458Z" style="fill:rgb(233,227,228);fill-rule:nonzero;"/>
        <path d="M136.172,31.41L136.172,34.159L134.536,34.159L134.536,27.223L137.585,27.223C138.147,27.223 138.598,27.288 138.939,27.418C139.279,27.549 139.561,27.788 139.785,28.137C140.008,28.486 140.12,28.873 140.12,29.3C140.12,30.133 139.719,30.73 138.916,31.092L140.196,34.159L138.401,34.159L137.336,31.41L136.172,31.41ZM136.172,28.458L136.172,30.226L137.168,30.226C137.493,30.226 137.729,30.203 137.877,30.157C138.024,30.112 138.155,30.01 138.271,29.852C138.386,29.695 138.443,29.515 138.443,29.311C138.443,29.118 138.386,28.945 138.271,28.793C138.155,28.641 138.03,28.547 137.894,28.511C137.759,28.475 137.505,28.458 137.132,28.458L136.172,28.458Z" style="fill:rgb(233,227,228);fill-rule:nonzero;"/>
        <rect x="140.855" y="27.223" width="1.621" height="6.936" style="fill:rgb(233,227,228);fill-rule:nonzero;"/>
        <path d="M145.952,34.266C145.018,34.266 144.295,33.915 143.784,33.214C143.273,32.513 143.018,31.664 143.018,30.668C143.018,29.655 143.277,28.81 143.794,28.132C144.312,27.455 145.05,27.116 146.008,27.116C146.976,27.116 147.706,27.478 148.199,28.201C148.691,28.924 148.938,29.752 148.938,30.683C148.938,31.689 148.684,32.538 148.176,33.229C147.668,33.92 146.927,34.266 145.952,34.266ZM145.998,28.442C145.146,28.442 144.72,29.191 144.72,30.688C144.72,32.189 145.146,32.94 145.998,32.94C146.823,32.94 147.235,32.191 147.235,30.693C147.235,29.193 146.823,28.442 145.998,28.442Z" style="fill:rgb(233,227,228);fill-rule:nonzero;"/>
        <path d="M154.815,27.223L154.815,34.159L153.429,34.159L150.714,29.474C150.717,29.592 150.721,29.67 150.724,29.708C150.738,29.826 150.745,29.926 150.745,30.007L150.745,34.159L149.479,34.159L149.479,27.223L151.231,27.223L153.59,31.313C153.57,31.11 153.56,30.956 153.56,30.851L153.56,27.223L154.815,27.223Z" style="fill:rgb(233,227,228);fill-rule:nonzero;"/>
        <path d="M121.264,36.032L119.882,36.495C119.696,35.946 119.302,35.671 118.7,35.671C118.058,35.671 117.737,35.88 117.737,36.296C117.737,36.462 117.797,36.603 117.917,36.718C118.037,36.833 118.309,36.933 118.732,37.018C119.439,37.161 119.956,37.305 120.285,37.451C120.613,37.596 120.889,37.831 121.114,38.154C121.339,38.478 121.452,38.839 121.452,39.239C121.452,39.866 121.211,40.407 120.728,40.865C120.246,41.322 119.531,41.551 118.583,41.551C117.873,41.551 117.268,41.389 116.768,41.065C116.269,40.742 115.94,40.262 115.781,39.625L117.285,39.284C117.454,39.931 117.924,40.255 118.695,40.255C119.067,40.255 119.344,40.183 119.526,40.039C119.709,39.895 119.8,39.723 119.8,39.523C119.8,39.32 119.717,39.162 119.552,39.051C119.386,38.939 119.066,38.834 118.593,38.735C117.71,38.552 117.08,38.302 116.705,37.986C116.329,37.669 116.142,37.206 116.142,36.596C116.142,35.979 116.366,35.459 116.814,35.036C117.263,34.613 117.871,34.401 118.639,34.401C120,34.401 120.875,34.945 121.264,36.032Z" style="fill:rgb(233,227,228);fill-rule:nonzero;"/>
        <path d="M126.44,34.508L126.44,35.88L124.722,35.88L124.722,41.444L123.076,41.444L123.076,35.88L121.348,35.88L121.348,34.508L126.44,34.508Z" style="fill:rgb(233,227,228);fill-rule:nonzero;"/>
        <path d="M128.252,38.695L128.252,41.444L126.616,41.444L126.616,34.508L129.665,34.508C130.227,34.508 130.678,34.573 131.019,34.703C131.359,34.834 131.641,35.073 131.865,35.422C132.088,35.77 132.2,36.158 132.2,36.585C132.2,37.417 131.799,38.015 130.996,38.377L132.276,41.444L130.481,41.444L129.416,38.695L128.252,38.695ZM128.252,35.742L128.252,37.511L129.248,37.511C129.573,37.511 129.809,37.488 129.957,37.442C130.104,37.396 130.235,37.295 130.351,37.137C130.466,36.98 130.523,36.799 130.523,36.596C130.523,36.403 130.466,36.23 130.351,36.078C130.235,35.925 130.11,35.831 129.974,35.796C129.839,35.76 129.585,35.742 129.212,35.742L128.252,35.742Z" style="fill:rgb(233,227,228);fill-rule:nonzero;"/>
        <path d="M136.343,34.508L138.514,41.444L136.768,41.444L136.341,40.016L134.098,40.016L133.663,41.444L132.239,41.444L134.462,34.508L136.343,34.508ZM134.488,38.735L135.958,38.735L135.229,36.301L134.488,38.735Z" style="fill:rgb(233,227,228);fill-rule:nonzero;"/>
        <path d="M140.393,38.868L140.393,41.444L138.741,41.444L138.741,34.508L141.475,34.508C142.085,34.508 142.551,34.573 142.875,34.703C143.198,34.834 143.487,35.067 143.741,35.402C143.995,35.737 144.122,36.149 144.122,36.637C144.122,36.979 144.055,37.313 143.919,37.638C143.784,37.963 143.592,38.219 143.345,38.405C143.098,38.591 142.858,38.715 142.626,38.776C142.394,38.837 142.03,38.868 141.536,38.868L140.393,38.868ZM140.337,37.607L141.394,37.607C141.797,37.607 142.08,37.514 142.242,37.328C142.405,37.142 142.486,36.928 142.486,36.688C142.486,36.406 142.396,36.183 142.214,36.017C142.033,35.851 141.758,35.768 141.389,35.768L140.337,35.768L140.337,37.607Z" style="fill:rgb(233,227,228);fill-rule:nonzero;"/>
    </g>
</svg>
